<svg width="512" height="512" viewBox="0 0 512 512" fill="none" xmlns="http://www.w3.org/2000/svg">
<path d="M98.5 136V376C98.5 401 111 413.5 136 413.5H376C401 413.5 413.5 401 413.5 376V136C413.5 111 401 98.5 376 98.5H136C111 98.5 98.5 111 98.5 136ZM136 76H376C416 76 436 96 436 136V376C436 416 416 436 376 436H136C96 436 76 416 76 376V136C76 96 96 76 136 76ZM121 136C121 126 126 121 136 121H376C386 121 391 126 391 136V376C391 386 386 391 376 391H136C126 391 121 386 121 376V136Z" fill="white"/>
<path d="M191.794 303V290.712H210.61V221.848H191.794V209.56H243.506V221.848H224.69V290.712H243.506V303H191.794ZM266.752 303V232.6H280.448V246.04H283.776L280.448 249.24C280.448 243.608 282.112 239.213 285.44 236.056C288.768 232.899 293.376 231.32 299.264 231.32C306.261 231.32 311.851 233.581 316.032 238.104C320.213 242.541 322.304 248.557 322.304 256.152V303H308.48V257.688C308.48 253.08 307.243 249.539 304.768 247.064C302.293 244.589 298.923 243.352 294.656 243.352C290.304 243.352 286.848 244.675 284.288 247.32C281.813 249.88 280.576 253.635 280.576 258.584V303H266.752Z" fill="#151515"/>
</svg>
