<svg width="512" height="512" viewBox="0 0 512 512" fill="none" xmlns="http://www.w3.org/2000/svg">
<path d="M98.5 136V376C98.5 401 111 413.5 136 413.5H376C401 413.5 413.5 401 413.5 376V136C413.5 111 401 98.5 376 98.5H136C111 98.5 98.5 111 98.5 136ZM136 76H376C416 76 436 96 436 136V376C436 416 416 436 376 436H136C96 436 76 416 76 376V136C76 96 96 76 136 76ZM121 136C121 126 126 121 136 121H376C386 121 391 126 391 136V376C391 386 386 391 376 391H136C126 391 121 386 121 376V136Z" fill="white"/>
<path fill-rule="evenodd" clip-rule="evenodd" d="M252.23 161.398C251.383 162.336 250.881 164.648 250.722 168.34L250.484 173.876L244.569 174.112C238.18 174.368 237.453 174.836 237.434 178.707C237.419 181.85 239.757 183 246.167 183H250.879V190.429V197.858L247.515 199.173C243.918 200.579 239.657 204.171 236.454 208.498C234.175 211.577 232.543 218.874 233.211 223C233.749 226.328 233.281 226.476 229.976 224.025C225.516 220.719 217.725 218.03 207.436 216.246C202.388 215.372 200.752 215.412 195.396 216.54C186.463 218.423 180.051 221.702 174.686 227.134C172.182 229.668 170.134 232.2 170.134 232.758C170.134 233.317 169.844 233.775 169.489 233.775C168.689 233.775 166.461 238.345 164.496 244.015C162.443 249.938 162.511 258.631 164.653 264.077C167.049 270.168 172.794 277.489 182.747 287.134C187.575 291.813 192.017 296.805 192.617 298.229C194.25 302.098 196.627 313.091 196.541 316.374C196.474 318.933 195.029 323.958 193.029 328.583C191.265 332.664 189.133 338.655 189.133 339.532C189.133 344.028 231.534 352.026 255.233 352C262.102 351.993 279.242 350.521 288.877 349.111C303.246 347.009 321.334 341.846 321.334 339.848C321.334 339.042 320.303 336.044 316.233 325.013C313.639 317.982 313.338 316.337 314.098 313.34C314.517 311.687 315.478 307.658 316.234 304.385C316.99 301.112 317.879 297.899 318.209 297.245C318.539 296.59 322.977 291.949 328.07 286.931C347.285 268.002 351.387 257.612 345.542 242.666C339.658 227.619 330.467 219.586 315.727 216.609C310.023 215.457 308.358 215.419 302.789 216.311C294.983 217.562 283.911 221.355 280.535 223.934C279.163 224.983 277.807 225.841 277.522 225.841C277.236 225.841 277.003 223.15 277.003 219.859C277.003 215.505 276.585 213.057 275.468 210.862C273.27 206.546 267.081 200.727 263.045 199.181L259.587 197.858V190.429V183H264.556C270.438 183 273.051 181.579 273.033 178.392C273.012 174.864 272.179 174.364 265.897 174.112L259.983 173.876L259.773 168.719C259.658 165.883 259.153 162.758 258.65 161.777C257.527 159.583 254.054 159.379 252.23 161.398ZM250.796 207.315C247.766 207.847 243.991 212.203 242.855 216.479C242.051 219.504 242.065 221.223 242.927 225.603C244.098 231.551 244.45 232.446 250.867 245.785L255.31 255.018L259.961 245.389C266.857 231.108 267.648 228.69 267.782 221.478C267.913 214.349 266.641 211.212 262.662 208.856C260.315 207.467 254.347 206.692 250.796 207.315ZM194.674 225.39C185.921 227.831 178.814 233.853 174.842 242.194C172.875 246.325 172.509 248.065 172.509 253.3C172.509 262.894 174.436 266.606 184.808 276.988C192.737 284.924 197.407 288.634 199.004 288.264C213.98 284.79 237.186 281.377 245.826 281.377C250.541 281.377 250.879 281.258 250.873 279.592C250.852 273.062 247.228 259.759 243.259 251.635C240.762 246.523 231.413 235.39 227.675 233.074C215.43 225.489 203.924 222.811 194.674 225.39ZM299.894 225.462C285.662 228.925 273.6 238.934 266.93 252.816C263.309 260.351 260.763 268.979 259.964 276.419L259.432 281.377H264.601C271.278 281.377 292.684 284.155 302.335 286.273C314.401 288.922 314.397 288.922 316.084 286.382C316.898 285.157 319.514 282.548 321.898 280.584C328.999 274.734 335.961 265.803 337.455 260.628C339.08 254.995 339.076 252.921 337.428 246.918C335.291 239.134 329.443 231.606 322.917 228.239C315.446 224.385 308.009 223.488 299.894 225.462ZM224.36 292.212C214.163 293.617 204.409 295.702 202.962 296.788C201.976 297.528 201.99 298.275 203.063 302.402C203.744 305.02 204.594 307.467 204.953 307.839C205.311 308.212 209.29 307.787 213.795 306.894C227.09 304.26 234.585 303.462 250.245 303.015C264.584 302.606 281.597 303.802 292.044 305.955C302.376 308.084 304.936 308.44 305.523 307.831C306.4 306.919 308.68 297.907 308.222 297.164C307.403 295.835 298.704 293.956 284.854 292.116C273.113 290.556 235.961 290.615 224.36 292.212ZM227.922 313.567C224.222 314.189 217.91 315.302 213.897 316.04L206.601 317.381L205.273 321.612C204.543 323.938 204.125 326.023 204.346 326.243C204.566 326.464 205.743 326.264 206.96 325.8C208.179 325.336 211.167 324.641 213.601 324.256C216.035 323.871 222.48 322.752 227.922 321.77C241.978 319.234 268.235 319.193 282.148 321.687C297.53 324.442 303.435 325.616 304.908 326.211C306.594 326.891 306.616 326.391 305.116 321.332L303.941 317.363L298.981 316.359C284.795 313.485 278.353 312.923 256.817 312.683C240.313 312.498 232.933 312.724 227.922 313.567ZM240.588 328.963C227.138 330.065 205.757 334.418 205.757 336.055C205.757 337.049 220.077 339.757 236.234 341.82C246.329 343.109 264.931 343.1 274.628 341.802C290.518 339.674 304.529 337.055 305.116 336.102C305.573 335.361 301.163 334.154 290.856 332.197C286.067 331.288 280.545 330.204 278.586 329.788C273.641 328.739 249.675 328.218 240.588 328.963Z" fill="#151515"/>
</svg>
